<?xml version="1.0" standalone="no"?>
<!DOCTYPE svg PUBLIC "-//W3C//DTD SVG 20010904//EN"
 "http://www.w3.org/TR/2001/REC-SVG-20010904/DTD/svg10.dtd">
<svg version="1.0" xmlns="http://www.w3.org/2000/svg"
 width="1024.000000pt" height="1024.000000pt" viewBox="0 0 1024.000000 1024.000000"
 preserveAspectRatio="xMidYMid meet">
<metadata>
Created by potrace 1.11, written by Peter Selinger 2001-2013
</metadata>
<g transform="translate(0.000000,1024.000000) scale(0.100000,-0.100000)"
fill="#000000" stroke="none">
<path d="M4919 10236 c-2 -2 -42 -6 -89 -10 -47 -4 -96 -8 -110 -10 -56 -9
-126 -19 -145 -22 -17 -2 -55 -9 -140 -28 -89 -19 -311 -82 -335 -95 -9 -5
-31 -12 -50 -16 -19 -4 -57 -19 -85 -32 -27 -13 -57 -26 -65 -28 -31 -6 -242
-108 -346 -165 -43 -24 -217 -132 -229 -142 -5 -5 -48 -36 -95 -70 -75 -54
-122 -92 -234 -188 -126 -109 -333 -336 -445 -490 -22 -30 -44 -59 -49 -65 -4
-5 -19 -28 -32 -50 -13 -22 -27 -42 -30 -45 -10 -9 -44 -65 -41 -69 1 -2 -1
-7 -7 -10 -13 -9 -85 -139 -147 -268 -49 -101 -75 -141 -75 -114 0 7 -8 7 -25
1 -14 -5 -25 -6 -25 -1 0 5 -16 5 -35 1 -20 -4 -38 -4 -41 1 -3 5 -13 5 -24
-1 -13 -7 -21 -7 -25 0 -4 6 -13 7 -24 1 -10 -6 -23 -6 -31 -1 -8 5 -18 6 -23
3 -5 -3 -22 -7 -36 -8 -66 -5 -142 -44 -194 -97 -41 -41 -79 -129 -83 -189 -1
-33 -5 -63 -9 -68 -3 -5 -1 -12 4 -15 6 -4 6 -18 1 -36 -5 -17 -5 -30 0 -30 4
0 4 -16 0 -35 -4 -19 -4 -37 0 -40 5 -3 5 -19 0 -35 -5 -18 -5 -32 1 -36 5 -3
7 -10 4 -15 -9 -13 -11 -99 -3 -99 4 0 3 -13 -2 -30 -5 -16 -6 -30 -2 -30 4 0
7 -16 7 -35 0 -19 -3 -35 -7 -35 -4 0 -3 -13 2 -30 5 -17 5 -30 0 -30 -5 0 -5
-13 0 -30 5 -17 5 -30 0 -30 -5 0 -5 -13 0 -30 5 -17 5 -30 0 -30 -5 0 -5 -13
0 -30 5 -17 5 -30 0 -30 -5 0 -5 -13 0 -29 4 -15 4 -34 0 -42 -5 -7 -5 -20 0
-29 4 -8 4 -22 0 -31 -5 -8 -5 -20 -1 -27 4 -7 4 -35 1 -62 -4 -28 -3 -50 1
-50 4 0 4 -13 -1 -30 -5 -16 -6 -30 -2 -30 4 0 7 -16 7 -35 0 -19 -3 -35 -7
-35 -4 0 -3 -13 2 -30 5 -17 5 -30 0 -30 -5 0 -5 -13 0 -30 5 -17 5 -30 0 -30
-5 0 -5 -13 0 -30 5 -17 5 -30 0 -30 -5 0 -5 -13 0 -30 5 -17 5 -30 0 -30 -5
0 -5 -13 0 -29 4 -15 4 -34 0 -42 -5 -7 -5 -20 0 -29 4 -8 4 -22 0 -31 -5 -8
-5 -21 -1 -28 5 -7 5 -30 1 -51 -4 -21 -4 -44 1 -51 4 -7 3 -21 -2 -30 -6 -11
-5 -20 1 -24 5 -3 6 -15 1 -28 -5 -12 -5 -34 0 -49 4 -16 4 -28 -1 -28 -5 0
-5 -13 0 -30 5 -19 5 -30 -1 -30 -6 0 -8 -4 -5 -9 3 -5 8 -31 10 -57 8 -78 15
-103 40 -142 60 -94 142 -145 251 -158 33 -3 63 -8 67 -10 4 -3 9 -1 12 4 3 5
28 6 56 2 27 -4 50 -2 50 2 0 5 4 7 9 4 5 -3 30 -7 56 -8 l47 -1 36 -76 c20
-42 35 -79 34 -83 -1 -5 1 -8 6 -8 4 0 14 -15 21 -32 8 -18 39 -73 68 -122 29
-49 53 -92 53 -97 0 -5 5 -9 10 -9 6 0 10 -5 10 -11 0 -6 14 -28 30 -49 17
-21 30 -43 30 -49 0 -6 4 -11 9 -11 5 0 13 -9 16 -20 3 -11 12 -26 19 -32 7
-7 44 -54 83 -105 99 -126 258 -296 372 -396 67 -59 157 -134 196 -162 22 -17
46 -36 53 -42 7 -7 17 -13 22 -13 5 0 15 -6 22 -13 20 -20 102 -74 112 -75 5
0 12 -4 15 -9 16 -25 262 -160 401 -221 94 -41 125 -55 135 -58 28 -9 240 -84
243 -85 1 -1 7 -3 12 -4 6 -1 11 -3 13 -5 1 -1 11 -3 22 -5 11 -2 56 -13 100
-25 107 -29 127 -34 195 -45 25 -4 54 -9 65 -11 11 -3 38 -7 60 -10 22 -2 55
-7 73 -10 83 -13 193 -18 397 -18 224 0 264 3 465 28 78 10 224 40 304 62 50
14 98 27 106 29 8 1 22 5 30 8 26 9 185 61 195 63 6 1 33 12 60 25 28 12 55
23 60 25 22 5 200 86 205 92 3 4 39 24 80 45 73 36 123 64 145 80 12 8 191
127 214 142 9 6 18 12 21 15 3 3 23 18 45 34 22 16 50 38 62 50 31 29 53 47
53 43 0 -6 90 77 188 174 126 125 202 208 262 288 14 19 33 43 42 54 10 11 39
52 65 91 27 39 56 79 66 90 9 11 17 25 17 32 0 7 4 14 8 16 9 3 107 172 136
233 10 22 23 43 28 46 5 3 9 9 8 13 -1 4 13 36 29 71 30 62 42 72 83 66 8 -1
55 -1 83 -1 11 0 45 1 75 1 107 0 183 14 201 35 6 8 17 14 23 14 15 0 68 48
98 90 42 58 59 128 58 243 0 9 0 24 0 32 0 8 0 22 0 30 0 8 0 22 0 30 0 8 0
22 0 30 0 8 0 22 0 30 0 8 0 22 0 30 0 8 0 22 0 30 0 8 0 22 0 30 0 8 0 22 0
30 0 8 0 22 0 30 0 8 0 22 0 30 0 8 0 22 0 30 0 8 0 22 0 30 0 8 0 22 0 30 0
8 0 22 0 30 0 8 0 22 0 30 0 8 0 21 0 28 0 6 -1 28 -2 47 -1 20 1 43 5 52 3
10 2 20 -3 23 -5 3 -5 18 0 35 5 17 5 30 0 30 -4 0 -4 16 0 35 4 19 4 37 0 40
-5 3 -5 19 0 35 5 17 5 32 0 35 -5 3 -6 16 -2 28 9 25 8 74 -1 83 -4 4 -2 15
3 25 7 11 7 20 0 24 -5 3 -6 15 -1 28 5 12 5 34 0 49 -4 16 -4 28 1 28 5 0 5
13 0 30 -5 17 -5 30 0 30 5 0 5 13 0 30 -5 17 -5 30 0 30 5 0 5 13 0 30 -5 18
-5 30 0 30 6 0 6 10 0 24 -5 13 -6 27 -3 30 8 8 9 76 1 76 -4 0 -3 14 2 30 5
17 5 30 1 30 -4 0 -5 22 -1 50 3 27 3 55 -1 62 -4 6 -3 20 2 29 6 11 5 20 -1
24 -5 3 -6 15 -1 28 5 12 5 34 0 49 -4 16 -4 28 1 28 5 0 5 13 0 30 -5 19 -5
30 1 30 6 0 8 4 5 9 -3 5 -8 31 -10 57 -8 78 -15 103 -40 142 -56 88 -145 148
-235 157 -23 2 -46 7 -51 10 -6 3 -10 2 -10 -4 0 -7 -8 -7 -25 -1 -15 6 -25 6
-25 0 0 -5 -12 -5 -30 0 -18 5 -32 5 -35 -1 -4 -5 -14 -5 -25 1 -13 7 -21 7
-25 0 -4 -6 -11 -7 -17 -4 -6 4 -24 7 -39 6 -25 -1 -32 7 -68 79 -22 43 -37
79 -33 79 4 0 2 4 -3 8 -6 4 -17 21 -25 37 -8 17 -38 70 -67 119 -29 49 -53
92 -53 97 0 5 -4 9 -10 9 -5 0 -10 5 -10 11 0 6 -13 28 -30 49 -16 21 -30 43
-30 49 0 6 -4 11 -9 11 -5 0 -13 9 -16 20 -3 11 -12 26 -18 32 -10 11 -38 46
-89 113 -25 33 -86 103 -105 121 -13 12 -23 24 -23 28 0 3 -53 58 -117 122
-106 105 -253 231 -358 309 -22 16 -41 33 -43 37 -2 4 -9 8 -17 8 -7 0 -18 7
-25 15 -7 8 -37 30 -67 47 -30 18 -62 38 -71 43 -10 6 -39 23 -67 40 -27 16
-53 34 -57 40 -4 5 -8 7 -8 3 0 -4 -21 5 -48 20 -107 61 -366 173 -457 198 -5
1 -43 14 -82 28 -40 13 -73 23 -73 20 0 -3 -8 0 -18 5 -11 6 -30 12 -43 15
-13 2 -51 11 -84 19 -65 17 -106 26 -145 32 -14 2 -36 6 -50 9 -43 10 -104 18
-129 17 -12 0 -28 2 -34 6 -5 3 -31 8 -56 9 -71 5 -518 14 -522 10z m-1208
-1916 c11 7 20 7 24 0 4 -6 15 -6 30 0 17 6 25 6 25 -1 0 -6 4 -7 10 -4 15 9
80 12 86 4 2 -4 18 -4 34 1 17 5 30 5 30 0 0 -5 12 -5 28 -1 15 5 37 5 49 0
13 -5 25 -4 28 1 4 7 13 6 25 0 12 -6 21 -7 25 0 3 5 15 6 28 1 13 -5 30 -5
39 0 10 6 19 6 23 0 3 -6 15 -7 29 -1 12 4 29 4 36 0 8 -5 21 -5 30 0 9 5 22
5 30 0 8 -5 19 -5 25 0 6 5 17 5 25 0 8 -5 21 -5 31 1 12 6 20 5 24 -1 4 -6
11 -8 16 -4 13 8 79 11 79 4 0 -3 14 -5 30 -5 17 0 30 3 30 7 0 4 14 3 30 -2
18 -5 30 -5 30 0 0 6 10 6 25 0 13 -5 26 -6 29 -2 5 8 91 6 114 -3 6 -2 12 0
12 5 0 6 9 6 25 0 15 -6 26 -6 30 0 4 7 13 7 24 0 10 -5 21 -7 24 -4 7 8 77
11 77 4 0 -7 70 -4 77 4 3 3 14 1 24 -5 13 -7 19 -6 19 1 0 7 6 8 18 1 10 -5
24 -6 32 -1 7 4 24 4 37 -1 14 -5 23 -5 23 1 0 6 9 6 23 1 13 -5 30 -5 37 -1
8 5 21 5 29 0 9 -5 23 -4 33 1 10 6 19 5 23 -1 4 -6 15 -6 30 0 16 6 25 6 25
0 0 -6 9 -6 25 0 14 5 25 6 25 2 0 -4 14 -7 30 -7 17 0 30 3 30 7 0 4 14 3 30
-2 18 -5 30 -5 30 0 0 6 10 6 25 0 13 -5 26 -6 29 -2 5 8 91 6 114 -3 6 -2 12
0 12 5 0 6 9 6 25 0 15 -6 27 -6 30 0 3 6 15 6 30 0 15 -6 27 -6 30 0 4 7 13
6 25 0 12 -6 21 -7 25 0 3 5 15 6 28 1 13 -5 30 -5 39 0 10 6 19 6 23 0 3 -6
15 -7 28 -2 12 5 32 5 44 0 13 -5 25 -4 28 1 4 7 13 6 25 0 12 -6 21 -7 25 0
3 6 15 6 29 0 13 -5 26 -7 28 -4 8 8 99 10 104 3 2 -4 17 -4 33 1 15 4 34 4
42 0 7 -5 20 -5 28 0 8 4 25 4 38 -1 14 -5 23 -5 23 1 0 6 9 6 25 0 15 -6 26
-6 30 1 4 5 12 6 18 2 6 -4 36 -8 67 -10 90 -4 161 -18 255 -48 77 -25 188
-75 193 -87 2 -4 8 -8 14 -8 13 0 94 -56 137 -95 72 -65 80 -73 74 -79 -4 -3
-1 -6 5 -6 17 0 83 -95 119 -170 44 -92 59 -142 68 -235 8 -71 8 -215 2 -222
-4 -3 -2 -14 3 -24 7 -12 7 -20 0 -24 -6 -4 -7 -12 -1 -22 5 -9 5 -29 1 -45
-5 -15 -5 -28 0 -28 5 0 5 -13 0 -30 -5 -17 -5 -30 0 -30 5 0 5 -13 0 -30 -5
-19 -5 -30 1 -30 6 0 8 -4 5 -8 -2 -4 -7 -64 -10 -133 -3 -68 -12 -167 -21
-219 -19 -120 -21 -129 -34 -162 -6 -16 -9 -28 -7 -28 19 0 -143 -409 -174
-440 -3 -3 -14 -22 -25 -42 -11 -21 -24 -38 -29 -38 -5 0 -6 -3 -3 -6 4 -4 -7
-24 -24 -45 -17 -22 -27 -39 -23 -39 4 0 -3 -8 -14 -19 -12 -10 -22 -22 -22
-26 0 -4 -36 -48 -79 -99 -119 -137 -281 -281 -401 -356 -30 -19 -56 -38 -58
-42 -2 -5 -8 -8 -13 -8 -5 0 -40 -17 -77 -38 -68 -38 -225 -111 -252 -116 -8
-2 -24 -6 -35 -10 -47 -18 -123 -41 -165 -51 -44 -10 -89 -19 -102 -20 -10 -2
-19 -4 -20 -5 -2 -1 -14 -3 -28 -4 -14 -2 -41 -6 -61 -10 -32 -6 -219 -18
-259 -17 -8 0 -62 0 -120 0 -58 0 -112 0 -120 0 -139 2 -373 0 -380 -4 -5 -3
-11 -1 -15 5 -4 6 -10 8 -15 5 -5 -3 -55 -5 -112 -5 -57 1 -112 1 -123 1 -127
-1 -223 3 -310 15 -27 4 -60 7 -72 7 -13 1 -23 5 -23 10 0 4 -4 6 -8 3 -10 -6
-166 30 -197 44 -11 6 -29 12 -40 13 -11 2 -33 9 -48 15 -16 7 -32 12 -38 12
-5 0 -38 13 -72 30 -35 16 -69 30 -74 30 -6 0 -22 9 -37 21 -14 11 -26 17 -26
14 0 -4 -6 -3 -12 3 -7 5 -35 22 -63 37 -27 15 -71 43 -98 61 -26 19 -51 34
-56 34 -5 0 -11 3 -13 8 -1 4 -21 20 -43 36 -22 17 -51 39 -64 50 -47 41 -226
222 -251 254 -14 18 -30 38 -36 45 -31 36 -94 128 -94 137 0 5 -4 10 -10 10
-5 0 -10 4 -10 9 0 4 -22 47 -50 95 -27 48 -50 89 -50 91 0 3 -14 35 -31 71
-41 90 -95 254 -113 346 -3 12 -9 46 -15 73 -25 126 -42 409 -26 435 3 5 3 10
-2 10 -9 0 -8 209 1 217 3 3 1 14 -4 24 -7 12 -7 20 0 24 6 4 7 12 1 22 -5 9
-5 29 -1 45 5 17 5 28 -1 28 -6 0 -7 4 -4 10 3 5 8 35 10 67 27 384 422 718
872 737 35 2 66 6 70 10 4 3 11 2 16 -3 7 -7 17 -7 28 -1z"/>
<path d="M4157 7984 c-6 -10 -37 -99 -42 -119 -1 -5 -5 -17 -8 -25 -9 -23 -59
-174 -62 -185 -1 -5 -5 -17 -8 -25 -4 -8 -30 -85 -58 -170 -28 -85 -54 -161
-58 -168 -9 -15 -286 -113 -295 -104 -3 3 -6 1 -6 -5 0 -5 -6 -10 -12 -10 -11
0 -306 -98 -378 -125 -24 -9 -22 -11 30 -29 30 -11 65 -21 77 -24 13 -2 28 -7
35 -12 7 -4 18 -8 23 -9 6 -1 93 -30 195 -64 102 -34 190 -63 195 -64 6 -1 15
-4 20 -7 6 -3 30 -12 55 -19 25 -7 49 -17 54 -21 7 -6 41 -91 46 -114 0 -3 2
-10 5 -17 2 -7 47 -141 99 -298 85 -257 95 -282 105 -257 12 32 62 177 66 192
1 6 5 17 8 25 9 22 39 113 41 125 1 6 8 20 14 33 7 12 11 22 8 22 -2 0 17 64
44 142 48 140 65 166 107 168 6 0 24 5 40 12 29 11 34 13 68 22 11 3 57 19
103 35 45 16 83 30 85 30 1 0 9 2 17 5 8 3 35 12 60 21 25 9 50 17 55 18 37 9
225 73 225 77 0 3 -157 56 -348 119 -191 63 -351 118 -356 122 -10 9 -34 70
-42 107 -4 20 -11 40 -40 117 -4 11 -8 25 -9 30 -2 6 -17 53 -35 105 -18 52
-33 99 -35 105 -1 5 -5 17 -8 25 -11 28 -49 142 -52 154 -1 6 -5 18 -8 26 -3
8 -7 22 -9 30 -3 8 -7 10 -11 4z"/>
<path d="M2987 3804 c-1 -1 -24 -4 -52 -8 -27 -3 -61 -8 -75 -11 -14 -3 -40
-8 -59 -11 -46 -8 -104 -21 -108 -24 -2 -2 -11 -3 -20 -4 -10 -1 -31 -6 -48
-12 -16 -6 -57 -19 -90 -28 -154 -44 -484 -187 -537 -234 -10 -8 -18 -12 -18
-9 0 6 -124 -72 -147 -92 -7 -6 -24 -16 -38 -23 -14 -6 -25 -15 -25 -19 0 -4
-8 -10 -17 -13 -10 -3 -29 -16 -43 -28 -14 -13 -43 -36 -65 -52 -22 -17 -51
-39 -64 -50 -53 -47 -269 -264 -306 -309 -22 -27 -45 -54 -51 -60 -21 -24
-121 -164 -168 -235 -40 -62 -159 -276 -162 -292 0 -3 -10 -26 -22 -53 -12
-26 -21 -48 -20 -50 1 -1 -5 -13 -12 -27 -8 -14 -15 -27 -16 -30 0 -3 -3 -12
-7 -20 -7 -17 -48 -140 -52 -155 -1 -5 -4 -14 -5 -20 -1 -5 -7 -21 -12 -35 -5
-14 -12 -33 -14 -42 -2 -10 -6 -26 -8 -35 -2 -10 -11 -48 -20 -86 -17 -71 -24
-111 -32 -167 -3 -19 -8 -48 -10 -65 -13 -78 -15 -118 -19 -365 -4 -293 1
-347 45 -484 13 -39 32 -85 42 -103 11 -18 17 -33 14 -33 -4 0 -2 -6 4 -12 6
-7 25 -36 43 -64 44 -70 95 -132 141 -174 22 -19 44 -40 50 -45 23 -22 113
-83 156 -107 55 -30 194 -84 235 -91 17 -3 53 -10 80 -16 31 -6 378 -10 903
-11 835 -1 853 0 843 18 -6 11 -7 22 -4 26 8 7 7 105 -1 113 -2 3 -1 16 4 29
6 16 6 24 -1 24 -6 0 -7 5 -4 11 9 14 10 113 1 128 -4 6 -3 11 3 11 7 0 7 8 2
23 -5 13 -5 30 0 39 6 11 5 19 -1 23 -7 4 -7 12 0 25 6 12 7 21 0 25 -6 4 -6
15 0 30 6 16 6 25 0 25 -6 0 -6 9 -1 23 4 12 5 33 1 47 -4 14 -3 35 1 48 5 12
5 22 -1 22 -5 0 -5 12 0 30 5 18 5 30 0 30 -6 0 -6 10 0 25 6 16 6 25 0 25 -6
0 -6 9 0 25 5 14 6 25 2 25 -4 0 -7 14 -7 30 0 17 3 30 7 30 4 0 3 11 -2 25
-6 16 -6 25 1 25 6 0 6 6 0 18 -6 11 -6 24 0 34 6 11 6 19 -1 23 -7 4 -7 12 0
25 6 10 7 21 3 23 -9 6 -9 59 0 73 3 6 2 16 -3 24 -5 8 -5 22 1 32 7 12 6 18
-1 18 -6 0 -9 4 -6 8 3 5 7 43 10 84 3 41 8 88 12 104 13 54 58 159 88 204 49
74 157 172 233 212 101 53 164 69 292 74 62 2 118 7 122 10 5 3 9 2 9 -3 0 -4
14 -8 30 -8 17 0 30 4 30 8 0 5 4 5 10 2 9 -5 88 -10 100 -5 12 4 70 4 70 0 0
-3 14 -5 30 -5 17 0 30 3 30 7 0 4 6 5 13 2 23 -8 98 -10 103 -2 3 4 11 5 18
2 22 -8 106 -10 106 -2 0 4 11 3 25 -2 15 -6 25 -6 25 0 0 5 12 5 30 0 18 -5
32 -5 35 1 4 5 14 5 25 -1 12 -6 21 -7 25 0 3 5 15 6 29 0 12 -4 29 -4 36 0 8
5 19 5 25 0 6 -5 17 -5 24 -1 8 5 27 5 42 1 17 -5 31 -5 34 1 4 5 14 5 25 -1
13 -7 21 -7 25 0 4 6 11 7 17 4 14 -9 113 -8 127 0 5 4 12 2 15 -2 3 -5 26 -6
51 -2 25 4 48 3 50 -1 3 -4 19 -4 35 1 17 5 30 5 30 0 0 -5 10 -6 22 -1 13 4
35 5 50 0 16 -4 30 -3 33 2 4 5 14 5 25 -1 12 -6 21 -7 25 0 3 5 15 6 29 0 12
-4 29 -4 36 0 8 5 19 5 25 0 6 -5 17 -5 25 0 7 4 23 5 35 0 12 -5 28 -4 35 0
8 5 22 4 31 -1 11 -6 20 -5 24 1 4 6 13 7 23 1 11 -6 24 -6 34 0 11 6 19 6 23
-1 4 -6 11 -8 16 -4 13 8 79 11 79 4 0 -3 14 -5 30 -5 17 0 30 3 30 7 0 4 6 5
13 2 23 -8 98 -10 103 -2 3 4 11 5 18 2 22 -8 106 -10 106 -2 0 4 11 3 25 -2
16 -6 25 -6 25 0 0 6 9 6 24 0 13 -5 26 -6 29 -3 7 7 77 10 77 3 0 -3 17 -4
38 -2 56 4 177 -2 217 -11 189 -45 355 -175 435 -341 46 -96 67 -182 66 -274
-1 -34 2 -62 5 -62 4 0 4 -15 -1 -33 -4 -18 -3 -43 1 -55 5 -13 4 -22 -2 -22
-6 0 -6 -6 0 -18 6 -11 6 -24 0 -34 -6 -11 -6 -19 1 -23 7 -4 7 -12 0 -24 -5
-10 -6 -21 -3 -25 9 -8 10 -66 1 -66 -4 0 -3 -11 2 -25 6 -16 6 -25 -1 -25 -6
0 -6 -6 0 -18 6 -11 6 -24 0 -34 -6 -11 -6 -19 1 -23 7 -4 7 -12 0 -25 -7 -13
-7 -21 0 -25 6 -4 8 -11 4 -16 -8 -14 -8 -114 0 -128 4 -6 3 -11 -3 -11 -7 0
-7 -8 -2 -23 5 -13 5 -30 0 -39 -6 -11 -5 -19 1 -23 7 -4 7 -12 0 -25 -6 -12
-7 -21 0 -25 6 -4 6 -15 0 -30 -6 -16 -6 -25 0 -25 6 0 6 -9 1 -23 -4 -12 -5
-33 -1 -47 4 -14 3 -33 -2 -42 -5 -10 -4 -19 2 -23 7 -4 7 -12 0 -25 -6 -12
-7 -21 0 -25 6 -4 6 -15 0 -30 -6 -16 -6 -25 0 -25 5 0 6 -9 1 -22 -4 -13 -5
-35 0 -50 4 -16 3 -30 -2 -33 -5 -4 -5 -13 0 -23 4 -9 6 -23 4 -30 -4 -10 158
-12 864 -9 477 1 882 6 898 10 56 14 80 19 80 17 0 0 25 8 55 18 76 27 147 61
197 94 23 15 44 28 47 28 33 0 276 262 276 298 0 6 4 12 8 14 10 4 72 135 72
152 0 7 3 16 8 20 4 4 8 12 8 17 1 5 2 10 4 12 2 2 3 9 14 62 23 109 27 169
21 404 -7 311 -9 341 -15 341 -4 0 -6 10 -6 23 -1 12 -4 40 -8 62 -4 22 -9 54
-12 70 -3 25 -38 171 -60 250 -3 11 -6 25 -7 30 -2 6 -5 15 -8 20 -4 6 -9 24
-13 40 -23 99 -159 396 -247 537 -27 44 -49 82 -49 84 0 3 -5 10 -10 17 -6 7
-37 49 -69 93 -128 176 -316 375 -487 514 -75 60 -253 183 -339 232 -77 45
-310 156 -317 152 -4 -3 -8 -1 -8 4 0 5 -19 15 -42 22 -24 8 -62 22 -86 32
-24 10 -53 20 -65 22 -12 2 -42 11 -67 19 -44 15 -115 35 -155 43 -52 11 -181
36 -209 40 -129 19 -115 21 -222 -44 -124 -76 -343 -189 -471 -242 -54 -23
-107 -45 -118 -50 -11 -5 -47 -18 -80 -30 -33 -11 -67 -23 -75 -27 -8 -3 -19
-7 -25 -8 -5 -2 -41 -12 -80 -25 -38 -12 -77 -23 -85 -25 -8 -2 -42 -12 -75
-21 -33 -9 -89 -22 -125 -30 -36 -8 -74 -17 -85 -19 -10 -3 -35 -7 -55 -10
-20 -3 -47 -8 -60 -10 -24 -5 -74 -13 -130 -20 -14 -2 -54 -7 -90 -11 -36 -3
-74 -8 -85 -11 -11 -2 -100 -5 -197 -8 -98 -2 -182 -7 -188 -10 -5 -3 -10 -3
-10 2 0 4 -35 8 -78 8 -133 1 -306 17 -473 45 -135 22 -158 26 -314 66 -133
33 -121 30 -200 54 -38 13 -74 23 -80 25 -5 1 -19 5 -30 9 -11 5 -45 17 -75
28 -30 11 -64 24 -75 29 -11 4 -49 20 -85 34 -99 40 -356 168 -432 214 -37 23
-72 41 -77 41 -5 0 -11 4 -13 8 -8 19 -78 52 -108 50 -17 -1 -32 -3 -33 -4z"/>
<path d="M4065 1263 c-47 -14 -79 -33 -132 -80 -40 -35 -84 -130 -88 -188 -2
-30 -6 -58 -9 -63 -2 -4 -1 -14 4 -22 5 -8 5 -21 -1 -31 -6 -11 -5 -20 1 -24
5 -3 6 -15 1 -28 -5 -12 -5 -34 0 -49 4 -16 4 -28 -1 -28 -5 0 -5 -13 0 -30 5
-17 5 -30 0 -30 -5 0 -5 -13 0 -30 5 -17 5 -30 0 -30 -5 0 -5 -13 0 -30 5 -17
5 -30 0 -30 -5 0 -5 -13 0 -30 5 -17 5 -30 0 -30 -5 0 -5 -13 0 -30 5 -17 5
-30 0 -30 -5 0 -5 -13 0 -30 5 -17 5 -30 0 -30 -5 0 -5 -13 0 -30 5 -17 5 -30
0 -30 -5 0 -5 -13 0 -30 5 -17 5 -30 0 -30 -5 0 -5 -13 0 -30 5 -17 5 -30 0
-30 -5 0 -5 -13 0 -29 4 -15 4 -34 0 -42 -5 -7 -5 -20 0 -29 4 -8 4 -22 0 -31
-5 -8 -5 -21 -1 -28 5 -7 6 -22 4 -32 -5 -18 6 -19 318 -19 177 0 320 2 317 6
-3 3 -2 21 2 40 4 19 4 36 0 39 -4 3 -4 21 0 40 4 19 4 37 0 40 -4 3 -4 21 0
40 4 19 4 37 0 40 -4 3 -4 21 0 40 4 19 4 37 0 40 -4 3 -4 21 0 40 4 19 4 37
0 40 -4 3 -4 21 0 40 4 19 4 37 0 40 -4 3 -4 21 0 40 4 19 4 37 -1 40 -4 3 -6
11 -3 19 7 18 10 146 4 146 -3 0 -3 27 0 61 3 33 3 62 -1 65 -4 2 -3 19 1 38
4 19 5 37 2 40 -2 3 -6 26 -7 51 -1 24 -4 48 -8 52 -4 3 -7 14 -7 23 0 24 -30
81 -46 87 -8 3 -12 9 -9 13 3 4 -12 20 -33 36 -20 15 -39 31 -42 34 -3 4 -25
15 -50 25 -58 23 -152 27 -215 8z"/>
<path d="M5968 1256 c-139 -57 -212 -172 -203 -318 9 -128 105 -252 220 -283
77 -21 199 -9 236 22 8 7 20 13 25 13 13 0 67 50 96 90 60 82 71 214 25 313
-69 150 -249 224 -399 163z"/>
</g>
</svg>
